<?xml version="1.0" encoding="utf-8"?>
<!-- Generator: Adobe Illustrator 17.1.0, SVG Export Plug-In . SVG Version: 6.00 Build 0)  -->
<!DOCTYPE svg PUBLIC "-//W3C//DTD SVG 1.1//EN" "http://www.w3.org/Graphics/SVG/1.1/DTD/svg11.dtd">
<svg version="1.1" id="Arrow_1_" xmlns="http://www.w3.org/2000/svg" xmlns:xlink="http://www.w3.org/1999/xlink" x="0px" y="0px"
	 width="500px" height="500px" viewBox="0 0 500 500" enable-background="new 0 0 500 500" xml:space="preserve">
  <metadata>
    <?xpacket begin="﻿" id="W5M0MpCehiHzreSzNTczkc9d"?>
    <x:xmpmeta xmlns:x="adobe:ns:meta/" x:xmptk="Adobe XMP Core 5.6-c011 79.156380, 2014/06/19-23:40:37        ">
     <rdf:RDF xmlns:rdf="http://www.w3.org/1999/02/22-rdf-syntax-ns#">
      <rdf:Description rdf:about=""
        xmlns:xmpMM="http://ns.adobe.com/xap/1.0/mm/"
        xmlns:stEvt="http://ns.adobe.com/xap/1.0/sType/ResourceEvent#"
        xmlns:xmp="http://ns.adobe.com/xap/1.0/"
        xmlns:xmpRights="http://ns.adobe.com/xap/1.0/rights/"
        xmlns:dc="http://purl.org/dc/elements/1.1/"
       xmpMM:DocumentID="xmp.did:d79614214e15a3ad34bc8ec25e61947f"
       xmpMM:OriginalDocumentID="xmp.did:d79614214e15a3ad34bc8ec25e61947f"
       xmpMM:InstanceID="xmp.iid:d79614214e15a3ad34bc8ec25e61947f"
       xmp:ModifyDate="2015-04-10T14:19:49+02:00"
       xmp:MetadataDate="2015-04-10T14:19:49+02:00"
       xmpRights:Marked="True"
       xmpRights:WebStatement="http://www.adobe.com/legal/general-terms.html">
       <xmpMM:History>
        <rdf:Seq>
         <rdf:li
          stEvt:action="saved"
          stEvt:instanceID="xmp.iid:d79614214e15a3ad34bc8ec25e61947f"
          stEvt:when="2015-04-10T14:19:49+02:00"/>
        </rdf:Seq>
       </xmpMM:History>
       <xmpRights:UsageTerms>
        <rdf:Alt>
         <rdf:li xml:lang="x-default">This work is licensed under the Adobe General Terms of Use http://www.adobe.com/legal/general-terms.html.</rdf:li>
        </rdf:Alt>
       </xmpRights:UsageTerms>
       <dc:publisher>
        <rdf:Bag>
         <rdf:li>Adobe Systems Incorporated</rdf:li>
        </rdf:Bag>
       </dc:publisher>
      </rdf:Description>
     </rdf:RDF>
    </x:xmpmeta>
    <?xpacket end="r"?>
  </metadata>
<g>
	<path fill="#E37948" d="M125.2,460.4c0,15.5,15.6,15.7,15.6,15.7h46.8c0,0,15.6-0.8,15.6-16c0-33.7,0-108.8,0-108.8l-78,78
		C125.2,441.1,125.2,452,125.2,460.4z"/>
	<path fill="#C1673D" d="M125.2,429.3l78-78h-78C125.2,351.4,125.2,393.9,125.2,429.3z"/>
	<path fill="#E2574C" d="M484.7,78.4c0.8,1.3,1.6,2.7,2.3,4C486.3,81.1,485.5,79.7,484.7,78.4z"/>
	<path fill="#E2574C" d="M493.4,97.3c0.5,1.4,1,2.8,1.5,4.3C494.4,100.1,493.9,98.7,493.4,97.3z"/>
	<path fill="#E2574C" d="M489.5,87.6c0.6,1.4,1.3,2.8,1.9,4.2C490.8,90.3,490.1,89,489.5,87.6z"/>
	<path fill="#E2574C" d="M479.2,69.8c0.9,1.3,1.8,2.5,2.6,3.8C481,72.3,480.1,71.1,479.2,69.8z"/>
	<path fill="#E2574C" d="M412.1,26.1c1,0.2,2,0.5,3,0.7C414.1,26.6,413.1,26.3,412.1,26.1z"/>
	<path fill="#E2574C" d="M281.2,133c0-60.3,48.9-109.2,109.2-109.2H109.7C49.4,23.9,0.5,72.7,0.5,133v202.7c0,8.6,7,15.6,15.6,15.6
		h109.2h78h78V289V133z M172,273.4h-31.2c-8.6,0-15.6-7-15.6-15.6s7-15.6,15.6-15.6v-46.8h-31.2c-8.6,0-15.6-7-15.6-15.6v-31.2
		c0-8.6,7-15.6,15.6-15.6h46.8c8.6,0,15.6,7,15.6,15.6v93.6c8.6,0,15.6,7,15.6,15.6S180.7,273.4,172,273.4z"/>
	<path fill="#E2574C" d="M498.4,118.6c0.2,1.2,0.4,2.4,0.5,3.6C498.8,121,498.6,119.8,498.4,118.6z"/>
	<path fill="#E2574C" d="M496.4,107.6c0.3,1.4,0.7,2.7,1,4.1C497.1,110.3,496.7,108.9,496.4,107.6z"/>
	<path fill="#E2574C" d="M472.9,61.8c1,1.2,2,2.4,3,3.6C474.9,64.1,473.9,63,472.9,61.8z"/>
	<path fill="#E2574C" d="M450.1,41.7c1.2,0.8,2.4,1.7,3.6,2.5C452.5,43.4,451.3,42.6,450.1,41.7z"/>
	<path fill="#E2574C" d="M458.3,47.7c1.2,0.9,2.3,1.9,3.5,2.9C460.6,49.6,459.5,48.7,458.3,47.7z"/>
	<path fill="#E2574C" d="M441.3,36.5c1.3,0.7,2.5,1.4,3.7,2.1C443.8,38,442.6,37.2,441.3,36.5z"/>
	<path fill="#E2574C" d="M432,32.2c1.3,0.5,2.5,1.1,3.8,1.7C434.5,33.3,433.3,32.7,432,32.2z"/>
	<path fill="#E2574C" d="M465.9,54.4c1.1,1.1,2.2,2.2,3.2,3.3C468.1,56.6,467,55.5,465.9,54.4z"/>
	<path fill="#E2574C" d="M422.2,28.7c1.2,0.4,2.4,0.8,3.6,1.3C424.6,29.5,423.5,29,422.2,28.7z"/>
	<path fill="#BF392C" d="M499,122.2c-0.1-1.2-0.4-2.4-0.5-3.6c-0.3-2.3-0.6-4.6-1.1-6.9c-0.3-1.4-0.7-2.8-1-4.1c-0.5-2-1-4-1.5-6
		c-0.4-1.4-1-2.8-1.5-4.3c-0.6-1.9-1.3-3.7-2-5.5c-0.6-1.4-1.2-2.8-1.9-4.2c-0.8-1.7-1.6-3.4-2.5-5.1c-0.7-1.4-1.5-2.7-2.3-4
		c-0.9-1.6-1.9-3.2-2.9-4.8c-0.8-1.3-1.7-2.6-2.6-3.8c-1.1-1.5-2.2-3-3.3-4.4c-1-1.2-2-2.4-3-3.6c-1.2-1.4-2.5-2.8-3.7-4.1
		c-1.1-1.1-2.1-2.2-3.2-3.3c-1.4-1.3-2.7-2.5-4.2-3.8c-1.1-1-2.3-2-3.5-2.9c-1.5-1.2-3-2.3-4.6-3.4c-1.2-0.9-2.4-1.7-3.6-2.5
		c-1.6-1.1-3.3-2.1-5-3.1c-1.2-0.7-2.5-1.5-3.7-2.1c-1.8-1-3.7-1.8-5.5-2.7c-1.3-0.6-2.5-1.2-3.8-1.7c-2-0.8-4.1-1.5-6.2-2.3
		c-1.2-0.4-2.4-0.9-3.6-1.3c-2.3-0.7-4.7-1.3-7.2-1.8c-1-0.2-2-0.5-3-0.7c-3.5-0.7-7-1.2-10.5-1.6c-1.1-0.1-2.3-0.1-3.5-0.2
		C341.4,28.4,296.8,75.4,296.8,133h109.2c8.6,0,15.6,7,15.6,15.6v124.8c0,8.6-7,15.6-15.6,15.6H296.8v62.4h187.1
		c8.6,0,15.6-7,15.6-15.6V133C499.5,129.4,499.3,125.8,499,122.2z"/>
	<path fill="#EFC75E" d="M172,242.2v-93.6c0-8.6-7-15.6-15.6-15.6h-46.8c-8.6,0-15.6,7-15.6,15.6v31.2c0,8.6,7,15.6,15.6,15.6h31.2
		v46.8c-8.6,0-15.6,7-15.6,15.6s7,15.6,15.6,15.6H172c8.6,0,15.6-7,15.6-15.6S180.7,242.2,172,242.2z"/>
	<rect x="281.2" y="289" fill="#AD3428" width="15.6" height="62.4"/>
	<path fill="#AD3428" d="M281.2,133h15.6c0-57.6,44.7-104.7,101.3-108.8c0,0,0.1,0,0.1,0c-2.6-0.2-5.2-0.4-7.8-0.4
		C330.1,23.9,281.2,72.8,281.2,133z"/>
	<path fill="#E4E7E7" d="M405.9,289c8.6,0,15.6-7,15.6-15.6V148.6c0-8.6-7-15.6-15.6-15.6H296.8V289H405.9z M343.6,164.2h46.8V211
		h-46.8V164.2z"/>
	<rect x="343.6" y="164.2" fill="#C2C5C5" width="46.8" height="46.8"/>
	<rect x="281.2" y="133" fill="#CDCFCF" width="15.6" height="155.9"/>
</g>
</svg>
