<?xml version="1.0" encoding="utf-8"?>
<!-- Generator: Adobe Illustrator 17.1.0, SVG Export Plug-In . SVG Version: 6.00 Build 0)  -->
<!DOCTYPE svg PUBLIC "-//W3C//DTD SVG 1.1//EN" "http://www.w3.org/Graphics/SVG/1.1/DTD/svg11.dtd">
<svg version="1.1" id="Arrow_1_" xmlns="http://www.w3.org/2000/svg" xmlns:xlink="http://www.w3.org/1999/xlink" x="0px" y="0px"
	 width="500px" height="500px" viewBox="0 0 500 500" enable-background="new 0 0 500 500" xml:space="preserve">
  <metadata>
    <?xpacket begin="﻿" id="W5M0MpCehiHzreSzNTczkc9d"?>
    <x:xmpmeta xmlns:x="adobe:ns:meta/" x:xmptk="Adobe XMP Core 5.6-c011 79.156380, 2014/06/19-23:40:37        ">
     <rdf:RDF xmlns:rdf="http://www.w3.org/1999/02/22-rdf-syntax-ns#">
      <rdf:Description rdf:about=""
        xmlns:xmpMM="http://ns.adobe.com/xap/1.0/mm/"
        xmlns:stEvt="http://ns.adobe.com/xap/1.0/sType/ResourceEvent#"
        xmlns:xmp="http://ns.adobe.com/xap/1.0/"
        xmlns:xmpRights="http://ns.adobe.com/xap/1.0/rights/"
        xmlns:dc="http://purl.org/dc/elements/1.1/"
       xmpMM:DocumentID="xmp.did:22fbc9226352c8973305219b9063f31e"
       xmpMM:OriginalDocumentID="xmp.did:22fbc9226352c8973305219b9063f31e"
       xmpMM:InstanceID="xmp.iid:22fbc9226352c8973305219b9063f31e"
       xmp:ModifyDate="2015-04-23T18:21:45+02:00"
       xmp:MetadataDate="2015-04-23T18:21:45+02:00"
       xmpRights:Marked="True"
       xmpRights:WebStatement="http://www.adobe.com/legal/general-terms.html">
       <xmpMM:History>
        <rdf:Seq>
         <rdf:li
          stEvt:action="saved"
          stEvt:instanceID="xmp.iid:22fbc9226352c8973305219b9063f31e"
          stEvt:when="2015-04-23T18:21:45+02:00"/>
        </rdf:Seq>
       </xmpMM:History>
       <xmpRights:UsageTerms>
        <rdf:Alt>
         <rdf:li xml:lang="x-default">This work is licensed under the Adobe General Terms of Use http://www.adobe.com/legal/general-terms.html.</rdf:li>
        </rdf:Alt>
       </xmpRights:UsageTerms>
       <dc:publisher>
        <rdf:Bag>
         <rdf:li>Adobe Systems Incorporated</rdf:li>
        </rdf:Bag>
       </dc:publisher>
      </rdf:Description>
     </rdf:RDF>
    </x:xmpmeta>
    <?xpacket end="r"?>
  </metadata>
<g>
	<path fill="#EFC84A" d="M250-0.5C112.2-0.5,0.5,111.2,0.5,249S112.2,498.5,250,498.5S499.5,386.8,499.5,249S387.8-0.5,250-0.5z
		 M413.7,362.1c0,2.7-1,5.2-2.5,7.2c0,0,0,0,0,0c-0.1,0.2-0.3,0.3-0.4,0.4c-0.3,0.4-0.7,0.7-1,1.1c-0.2,0.2-0.5,0.4-0.8,0.6
		c-0.4,0.3-0.8,0.6-1.3,0.8c-0.3,0.2-0.6,0.3-0.9,0.5c-0.5,0.2-1,0.4-1.5,0.5c-0.3,0.1-0.6,0.2-0.9,0.3c-0.7,0.2-1.5,0.3-2.3,0.3
		c-0.1,0-0.2,0-0.2,0H98c-0.1,0-0.2,0-0.2,0c-0.8,0-1.5-0.1-2.3-0.3c-0.3-0.1-0.6-0.2-0.9-0.3c-0.5-0.2-1-0.3-1.4-0.5
		c-0.3-0.1-0.6-0.3-0.9-0.5c-0.4-0.2-0.8-0.5-1.2-0.8c-0.3-0.2-0.5-0.4-0.8-0.6c-0.4-0.3-0.7-0.7-1-1.1c-0.1-0.1-0.3-0.3-0.4-0.4
		c0,0,0,0,0,0c-1.6-2-2.6-4.5-2.6-7.2V194.4c0-2.6,0.9-5,2.4-7c0,0,0,0,0,0c0.1-0.2,0.3-0.3,0.4-0.5c0.3-0.4,0.7-0.8,1-1.1
		c0.2-0.2,0.5-0.4,0.7-0.6c0.3-0.2,0.6-0.5,0.9-0.7c0.2-0.1,0.3-0.2,0.5-0.3l0-0.1c0,0,8.5-4.8,21.5-12.3v-43.7h75.7
		c32.5-18.8,60.7-35.1,60.7-35.1s28.2,16.3,60.7,35.1h75.7v43.7c11.3,6.5,19.2,11.1,21.1,12.1l0.1,0.1l0.3,0.2l0,0
		c0.1,0.1,0.2,0.2,0.3,0.2c0.4,0.3,0.8,0.6,1.2,0.9c0.2,0.1,0.3,0.2,0.5,0.4c0.4,0.4,0.8,0.8,1.1,1.2c0.1,0.2,0.3,0.3,0.4,0.4
		c0,0,0,0,0,0c1.5,1.9,2.3,4.3,2.3,7V362.1z"/>
	<path fill="#DF5A48" d="M410.9,369.7c-0.3,0.4-0.7,0.7-1,1.1C410.2,370.4,410.5,370,410.9,369.7z"/>
	<path fill="#DF5A48" d="M409.1,371.4c-0.4,0.3-0.8,0.6-1.3,0.8C408.2,371.9,408.7,371.7,409.1,371.4z"/>
	<path fill="#DF5A48" d="M90.8,185.3c0.3-0.2,0.6-0.5,0.9-0.7C91.4,184.8,91.1,185,90.8,185.3z"/>
	<path fill="#DF5A48" d="M90.2,370.7c-0.4-0.3-0.7-0.7-1-1.1C89.5,370.1,89.8,370.4,90.2,370.7z"/>
	<path fill="#DF5A48" d="M88.6,187.4c-1.5,2-2.4,4.4-2.4,7v167.6c0,2.7,1,5.2,2.6,7.2c2-0.9,161.1-89.1,161.1-89.1
		S90.2,188.2,88.6,187.4z"/>
	<path fill="#DF5A48" d="M92.2,372.2c-0.4-0.2-0.8-0.5-1.2-0.8C91.4,371.7,91.8,371.9,92.2,372.2z"/>
	<path fill="#DF5A48" d="M406.9,372.6c-0.5,0.2-1,0.4-1.5,0.5C406,373,406.5,372.9,406.9,372.6z"/>
	<path fill="#DF5A48" d="M89,187c0.3-0.4,0.7-0.8,1-1.1C89.7,186.2,89.4,186.6,89,187z"/>
	<path fill="#DF5A48" d="M409.9,185.8c0.4,0.4,0.8,0.8,1.1,1.2C410.7,186.6,410.3,186.2,409.9,185.8z"/>
	<path fill="#DF5A48" d="M408.2,184.5c0.4,0.3,0.8,0.6,1.2,0.9C409.1,185.1,408.7,184.8,408.2,184.5z"/>
	<path fill="#DF5A48" d="M94.5,373.2c-0.5-0.2-1-0.3-1.4-0.5C93.6,372.9,94,373,94.5,373.2z"/>
	<path fill="#DF5A48" d="M404.6,373.5c-0.7,0.2-1.5,0.3-2.3,0.3C403.1,373.7,403.8,373.6,404.6,373.5z"/>
	<path fill="#DF5A48" d="M97.7,373.7c-0.8,0-1.5-0.1-2.3-0.3C96.2,373.6,96.9,373.7,97.7,373.7z"/>
	<path fill="#DF5A48" d="M249.9,280.2c0,0,159.4,88,161.3,89c1.5-2,2.5-4.4,2.5-7.2V194.4c0-2.6-0.9-5-2.3-7
		C410.1,188.2,249.9,280.2,249.9,280.2z"/>
	<path fill="#BD3E25" d="M250,93.1c0,0-28.2,16.3-60.7,35.1h121.4C278.2,109.3,250,93.1,250,93.1z"/>
	<path fill="#BD3E25" d="M411.4,187.5C411.4,187.5,411.4,187.4,411.4,187.5c-0.1-0.2-0.2-0.3-0.4-0.5c-0.4-0.4-0.7-0.8-1.1-1.2
		c-0.1-0.1-0.3-0.3-0.5-0.4c-0.4-0.3-0.8-0.6-1.2-0.9c-0.1-0.1-0.2-0.2-0.3-0.2l0,0l-0.3-0.2l-0.1-0.1c-1.9-1.1-9.8-5.6-21.1-12.1
		v27.1c0.2,0.1-134.6,73.3-136.5,73.5c0.1,1.9-136.4-75.7-136.4-75.5v-25c-13,7.5-21.4,12.3-21.5,12.3l0,0.1
		c-0.2,0.1-0.3,0.2-0.5,0.3c-0.3,0.2-0.6,0.4-0.9,0.7c-0.2,0.2-0.5,0.4-0.7,0.6c-0.4,0.3-0.7,0.7-1,1.1c-0.1,0.2-0.3,0.3-0.4,0.5
		c0,0,0,0,0,0c1.6,0.7,161.3,92.8,161.3,92.8S410.1,188.2,411.4,187.5z"/>
	<path fill="#BD3E25" d="M88.8,369.3C88.8,369.3,88.8,369.3,88.8,369.3c0.1,0.2,0.2,0.3,0.4,0.4c0.3,0.4,0.7,0.7,1,1.1
		c0.3,0.2,0.5,0.4,0.8,0.6c0.4,0.3,0.8,0.5,1.2,0.8c0.3,0.2,0.6,0.3,0.9,0.5c0.5,0.2,1,0.4,1.4,0.5c0.3,0.1,0.6,0.2,0.9,0.3
		c0.7,0.2,1.5,0.2,2.3,0.3c0.1,0,0.2,0,0.2,0H402c0.1,0,0.2,0,0.2,0c0.8,0,1.6-0.1,2.3-0.3c0.3-0.1,0.6-0.2,0.9-0.3
		c0.5-0.2,1-0.3,1.5-0.5c0.3-0.1,0.6-0.3,0.9-0.5c0.4-0.2,0.9-0.5,1.3-0.8c0.3-0.2,0.5-0.4,0.8-0.6c0.4-0.3,0.7-0.7,1-1.1
		c0.1-0.2,0.3-0.3,0.4-0.4c0,0,0,0,0,0c-1.9-1-161.3-89-161.3-89S90.8,368.3,88.8,369.3z"/>
	<path fill="#E4E7E8" d="M113.6,196.9c0-0.2,136.4,77.5,136.4,75.5c1.9-0.2,136.7-73.4,136.5-73.5v-27.1v-43.7h-75.7H189.3h-75.7
		v43.7V196.9z M351.4,194.4H136.9v-15.6h214.4V194.4z M136.9,151.5h97.5v15.6h-97.5V151.5z"/>
	<rect x="136.9" y="178.8" fill="#ADB2B3" width="214.4" height="15.6"/>
	<rect x="136.9" y="151.5" fill="#ADB2B3" width="97.5" height="15.6"/>
</g>
</svg>
